<svg width="1000" height="1000" viewBox="0 0 1000 1000" fill="none" xmlns="http://www.w3.org/2000/svg">
<rect width="1000" height="1000" rx="250" fill="#E87204"/>
<path d="M743.439 266.43C1134.48 560.831 729.823 1111.13 332.629 812.094" stroke="white" stroke-width="50" stroke-linecap="round"/>
<path d="M703.111 233.95C703.121 221.746 713.442 212.323 724.921 214.038L948.632 247.463C964.717 249.866 970.551 271.046 958.226 282.298L734.332 486.721C722.008 497.973 702.914 488.901 702.927 471.799L703.111 233.95Z" fill="white" stroke="white"/>
<path d="M256.561 733.57C-134.481 439.169 270.176 -111.127 667.371 187.906" stroke="white" stroke-width="50" stroke-linecap="round"/>
<path d="M296.889 766.05C296.879 778.254 286.558 787.677 275.079 785.962L51.3682 752.537C35.2828 750.134 29.4494 728.954 41.7735 717.702L265.668 513.279C277.992 502.027 297.086 511.099 297.073 528.201L296.889 766.05Z" fill="white" stroke="white"/>
<path d="M266.5 475V393.625L296.125 388.938V273.062L266.5 268.375V187H435.438C456.062 187 475.375 187.938 493.375 189.812C511.375 191.562 527.125 195.438 540.625 201.438C554.25 207.312 564.875 216.312 572.5 228.438C580.125 240.438 583.938 256.688 583.938 277.188C583.938 292.312 581.5 304.688 576.625 314.312C571.875 323.812 565.188 331.5 556.562 337.375C548.062 343.25 538.188 348.438 526.938 352.938C536.562 368.438 546.438 382.688 556.562 395.688C566.688 408.562 575.812 419.312 583.938 427.938V475H464.688C445.438 441.125 431.438 406.812 422.688 372.062H416.125V475H266.5ZM416.125 316.75C425.75 316.75 434.125 316.062 441.25 314.688C448.5 313.188 454.125 310.125 458.125 305.5C462.125 300.75 464.125 293.562 464.125 283.938C464.125 274.312 462.125 267.188 458.125 262.562C454.125 257.812 448.5 254.688 441.25 253.188C434.125 251.562 425.75 250.75 416.125 250.75V316.75Z" fill="white"/>
<path d="M489.375 798V716.625L519 711.938V596.062L489.375 591.375V510H658.312C678.438 510 697.438 510.938 715.312 512.812C733.312 514.688 749.188 518.562 762.938 524.438C776.688 530.312 787.438 539.125 795.188 550.875C803.062 562.625 807 578.438 807 598.312C807 614.938 803.938 628.75 797.812 639.75C791.688 650.625 783.188 659.312 772.312 665.812C761.562 672.188 749.062 676.938 734.812 680.062C720.688 683.062 705.438 685.062 689.062 686.062C672.688 686.938 656 687.375 639 687.375V711.938L668.625 716.625V798H489.375ZM639 635.812C653.875 635.812 665.562 633.688 674.062 629.438C682.688 625.188 687 615.562 687 600.562C687 590.688 685 583.312 681 578.438C677.125 573.438 671.625 570.125 664.5 568.5C657.375 566.875 648.875 566.062 639 566.062V635.812Z" fill="white"/>
</svg>
