<svg width="1000" height="1000" viewBox="0 0 1000 1000" fill="none" xmlns="http://www.w3.org/2000/svg">
<rect width="1000" height="1000" rx="250" fill="#E87204"/>
<path d="M743.439 266.43C1134.48 560.831 729.823 1111.13 332.629 812.094" stroke="white" stroke-width="50" stroke-linecap="round"/>
<path d="M703.111 233.95C703.121 221.746 713.442 212.323 724.921 214.038L948.632 247.463C964.717 249.866 970.551 271.046 958.226 282.298L734.332 486.721C722.008 497.973 702.914 488.901 702.927 471.799L703.111 233.95Z" fill="white" stroke="white"/>
<path d="M256.561 733.57C-134.481 439.169 270.176 -111.127 667.371 187.906" stroke="white" stroke-width="50" stroke-linecap="round"/>
<path d="M296.889 766.05C296.879 778.254 286.558 787.677 275.079 785.962L51.3682 752.537C35.2828 750.134 29.4494 728.954 41.7735 717.702L265.668 513.279C277.992 502.027 297.086 511.099 297.073 528.201L296.889 766.05Z" fill="white" stroke="white"/>
<rect x="294.75" y="216.75" width="411" height="567" rx="81.25" fill="white" stroke="black" stroke-width="37.5"/>
<line x1="305.25" y1="695.25" x2="710.25" y2="695.25" stroke="black" stroke-width="37.5"/>
<line x1="305.25" y1="410.25" x2="710.25" y2="410.25" stroke="black" stroke-width="37.5"/>
<line x1="363" y1="629.25" x2="637.504" y2="629.25" stroke="black" stroke-width="37.5" stroke-linecap="round"/>
<path d="M500.25 525L484.012 496.875H516.488L500.25 525Z" fill="black"/>
<rect x="426.75" y="320.25" width="147" height="180" rx="25" fill="black"/>
<path d="M500 348.606C500 212.663 348 256.734 348 392" stroke="black" stroke-width="37.5"/>
<rect x="468" y="517" width="68" height="28" fill="white"/>
<rect x="475" y="648" width="50" height="36" fill="black"/>
</svg>
